<?xml version="1.0" standalone="no"?>
<!DOCTYPE svg PUBLIC "-//W3C//DTD SVG 20010904//EN"
 "http://www.w3.org/TR/2001/REC-SVG-20010904/DTD/svg10.dtd">
<svg version="1.0" xmlns="http://www.w3.org/2000/svg"
 width="396.000000pt" height="396.000000pt" viewBox="0 0 396.000000 396.000000"
 preserveAspectRatio="xMidYMid meet">
<metadata>
Created by potrace 1.11, written by Peter Selinger 2001-2013
</metadata>
<g transform="translate(0.000000,396.000000) scale(0.100000,-0.100000)"
fill="#000000" stroke="none">
<path d="M0 1980 l0 -1980 1980 0 1980 0 0 1980 0 1980 -1980 0 -1980 0 0
-1980z m2679 1734 c58 -17 131 -76 131 -105 0 -28 -44 -34 -109 -15 -31 10
-77 24 -104 31 -56 16 -107 50 -107 71 0 34 102 44 189 18z m-830 -85 c70 -25
23 -65 -105 -90 -94 -18 -100 -18 -134 -1 -23 11 -35 24 -35 37 0 44 193 82
274 54z m767 -96 c43 -31 64 -54 64 -67 0 -12 -14 -99 -30 -195 -17 -96 -29
-175 -28 -175 21 -9 180 -121 197 -140 14 -14 30 -26 37 -26 7 0 59 29 115 64
l103 64 53 -73 c29 -40 53 -77 53 -82 0 -5 -16 -25 -36 -44 -20 -18 -54 -55
-76 -81 l-39 -47 29 -43 c40 -58 95 -169 122 -248 13 -36 28 -70 34 -76 7 -7
95 -16 216 -24 113 -6 208 -15 211 -18 10 -10 42 -152 36 -158 -3 -3 -97 -27
-208 -53 l-204 -47 -7 -112 c-7 -128 -28 -244 -64 -352 l-26 -75 54 -50 c30
-27 98 -91 153 -142 l99 -91 -50 -57 c-27 -32 -56 -66 -65 -77 -15 -19 -19
-18 -182 63 l-166 83 -22 -29 c-49 -66 -210 -213 -292 -268 -100 -67 -95 -53
-73 -217 7 -52 11 -98 9 -103 -4 -6 -76 -47 -115 -65 -4 -2 -39 45 -79 105
-39 59 -73 110 -75 112 -2 2 -29 -3 -61 -12 -98 -26 -195 -38 -324 -40 l-123
-2 -55 -187 c-31 -103 -59 -189 -62 -193 -4 -3 -41 4 -83 17 l-76 23 0 205 -1
205 -127 62 c-110 53 -196 109 -317 208 l-30 24 -108 -80 c-59 -44 -111 -78
-115 -75 -4 2 -25 40 -46 84 l-39 79 68 79 c37 44 69 84 72 90 2 7 -19 52 -47
100 -50 88 -105 218 -117 275 l-5 29 -216 0 -215 0 7 87 c4 48 8 88 9 89 1 1
81 27 177 59 96 32 181 60 188 63 6 2 13 -4 14 -14 1 -11 5 49 9 131 4 83 10
166 13 185 l7 35 -93 52 c-147 82 -140 71 -88 138 l43 56 112 -7 112 -7 32 59
c40 71 95 147 168 231 29 33 53 63 53 66 0 3 -39 85 -86 182 -48 97 -83 180
-78 184 5 4 38 20 73 35 53 22 66 24 79 14 9 -7 72 -59 140 -115 68 -57 128
-103 133 -103 5 0 33 12 62 27 29 15 95 43 147 63 l95 36 3 127 3 127 83 0 83
0 39 -105 39 -105 70 0 c60 0 183 -15 290 -35 29 -5 33 -1 148 170 65 96 120
175 124 175 3 0 34 -21 69 -47z m-1570 -28 c17 -42 -68 -150 -149 -191 -63
-32 -130 -31 -135 3 -6 42 119 156 206 188 49 18 71 18 78 0z m2137 -354 c75
-52 157 -154 157 -195 0 -58 -142 9 -208 98 -25 34 -46 101 -37 116 11 18 46
10 88 -19z m-2645 -473 c18 -18 15 -55 -13 -148 -25 -84 -65 -150 -90 -150
-17 0 -35 52 -35 101 0 59 36 144 76 178 39 34 45 36 62 19z m3242 -304 c53
-144 24 -310 -43 -236 -21 23 -59 187 -50 220 9 41 33 72 53 72 13 0 25 -16
40 -56z m-3535 -510 c13 -14 23 -34 22 -43 -4 -34 15 -120 29 -132 27 -22 -8
-119 -42 -119 -9 0 -26 24 -41 57 -41 90 -43 263 -3 263 6 0 22 -12 35 -26z
m3371 -638 c16 -65 -57 -202 -127 -238 -83 -43 -88 7 -12 135 69 119 124 160
139 103z m-2893 -170 c69 -28 140 -139 135 -209 -5 -63 -29 -61 -97 10 -61 63
-101 135 -101 183 0 34 13 37 63 16z m2027 -460 c0 -22 -86 -95 -143 -122 -92
-42 -158 -24 -107 31 58 61 250 132 250 91z m-990 -299 c86 -29 2 -82 -130
-82 -91 0 -144 21 -138 54 7 34 192 54 268 28z"/>
<path d="M1273 2840 c-98 -22 -171 -156 -129 -238 42 -81 134 -84 208 -5 106
111 54 271 -79 243z"/>
<path d="M2315 2616 c-93 -41 -94 -171 -1 -219 97 -50 205 54 162 157 -25 61
-101 90 -161 62z"/>
<path d="M1875 2272 c-90 -58 -118 -146 -76 -238 62 -136 262 -129 322 10 34
79 12 160 -57 213 -48 36 -143 44 -189 15z"/>
<path d="M1285 1950 c-125 -47 -103 -330 25 -330 66 0 110 66 110 165 0 64
-17 111 -51 141 -29 25 -58 34 -84 24z"/>
<path d="M907 1849 c-26 -15 -47 -63 -47 -109 0 -79 49 -131 105 -110 67 25
74 172 10 214 -28 18 -43 19 -68 5z"/>
<path d="M2636 1810 c-47 -42 -70 -104 -64 -179 7 -102 63 -131 132 -71 45 40
70 113 64 186 -8 95 -65 122 -132 64z"/>
<path d="M1750 1407 c-67 -23 -99 -111 -65 -177 31 -60 127 -80 180 -38 80 62
59 180 -38 217 -34 13 -33 13 -77 -2z"/>
<path d="M1070 1359 c0 -39 63 -141 130 -208 127 -131 279 -211 509 -269 147
-36 339 -37 451 -3 136 42 293 134 398 234 63 61 42 61 -133 2 -201 -67 -279
-79 -490 -80 -135 0 -201 5 -263 18 -197 42 -338 116 -468 245 -60 59 -91 82
-109 82 -19 0 -25 -5 -25 -21z"/>
<path d="M2369 1341 c-58 -58 -23 -141 60 -141 88 0 113 116 34 158 -35 19
-63 14 -94 -17z"/>
</g>
</svg>
